<?xml version="1.0"?>
<svg xmlns="http://www.w3.org/2000/svg" id="Capa_1" enable-background="new 0 0 512 512" height="512px" viewBox="0 0 512 512" width="512px"><g><path d="m496.484 224.452h-49.22l7.227-20.151c3.568-9.948 3.048-20.689-1.464-30.246-1.881-3.985-4.37-7.558-7.345-10.636l24.172-27.293c2.747-3.101 2.459-7.841-.642-10.587-3.102-2.747-7.841-2.459-10.587.642l-17.112 19.32 17.973-50.116c1.398-3.899-.629-8.193-4.528-9.592-3.898-1.398-8.193.629-9.591 4.528l-17.973 50.116-.934-25.791c-.15-4.14-3.625-7.373-7.767-7.224-4.139.15-7.374 3.627-7.224 7.766l1.319 36.434c-4.254.486-8.446 1.663-12.431 3.544-6.94 3.276-12.643 8.379-16.616 14.734v-11.47c0-6.285-2.447-12.195-6.892-16.64l-6.641-6.64c-1.612-1.612-2.5-3.755-2.5-6.034v-25.424c0-8.556-6.96-15.516-15.516-15.516h-16.032c-8.556 0-15.516 6.96-15.516 15.516v25.424c0 2.279-.888 4.422-2.499 6.033l-6.641 6.641c-4.444 4.445-6.892 10.355-6.892 16.64v1.891h-17.064v-128.773c0-8.556-6.96-15.516-15.516-15.516h-32.064c-8.556 0-15.516 6.96-15.516 15.516v112.742h-17.064v-24.564c0-4.142-3.358-7.5-7.5-7.5h-75.595l-7.039-37.628c-.007-.037-.014-.074-.021-.111-2.105-10.386-11.659-17.566-22.218-16.698-5.57.457-10.629 3.056-14.245 7.318s-5.355 9.677-4.898 15.247l2.901 35.357c-1.373 3.439-4.43 11.547-7.244 22.116l-12.084-25.679c-4.512-9.589-15.497-14.291-25.549-10.941-5.302 1.767-9.599 5.494-12.098 10.493s-2.903 10.672-1.135 15.974l11.217 33.652c-1.081 7.629-4.414 36.341 1.998 63.125h-18.362c-8.556.001-15.516 6.961-15.516 15.517v32.064c0 8.556 6.96 15.516 15.516 15.516h.516v184.887c0 12.976 10.557 23.532 23.532 23.532h432.871c12.976 0 23.532-10.557 23.532-23.532v-184.887h.516c8.556 0 15.516-6.96 15.516-15.516v-32.064c.001-8.556-6.959-15.516-15.515-15.516zm-89.722-55.72c5.934-2.801 12.602-3.124 18.779-.909 6.176 2.215 11.121 6.702 13.921 12.636 1.698 3.596 2.479 7.462 2.343 11.325l-6.934-2.487c-3.899-1.397-8.193.629-9.591 4.528s.629 8.193 4.528 9.592l8.032 2.88-6.511 18.154h-47.587v-12.844l5.146-14.349 8.032 2.88c.836.3 1.691.442 2.531.442 3.077 0 5.962-1.908 7.06-4.97 1.398-3.899-.629-8.193-4.528-9.592l-8.032-2.88.174-.486c2.216-6.175 6.703-11.119 12.637-13.92zm-70.601-65.555h16.032c.285 0 .516.231.516.516v16.548h-17.064v-16.548c0-.284.231-.516.516-.516zm-16.548 55.254c0-2.279.888-4.422 2.499-6.033l6.641-6.64c2.962-2.961 5.031-6.575 6.086-10.515h18.679c1.055 3.94 3.124 7.553 6.085 10.515l6.641 6.64c1.611 1.612 2.499 3.755 2.499 6.034v66.021h-17.064v-24.564c0-12.976-10.557-23.532-23.532-23.532h-8.532v-17.926zm0 66.021v-33.097h8.532c4.705 0 8.532 3.828 8.532 8.532v24.564h-17.064zm-15-49.129v49.129h-17.064v-49.129zm-80.161-16.033v8.535c0 4.142 3.358 7.5 7.5 7.5s7.5-3.358 7.5-7.5v-136.277c0-.285.231-.516.516-.516h32.064c.285 0 .516.231.516.516v208.419c0 .285-.231.516-.516.516h-32.064c-.285 0-.516-.231-.516-.516v-40.08c0-4.142-3.358-7.5-7.5-7.5s-7.5 3.358-7.5 7.5v24.563h-17.064v-65.16zm-97.226 65.162v-33.097h65.162v33.097zm65.161-97.226v49.129h-65.162v-49.129zm-100.18-52.415c1.023-1.206 2.456-1.942 4.033-2.072 2.978-.242 5.668 1.766 6.282 4.684l2.225 11.891-12.905 2.253-1.021-12.44c-.13-1.576.363-3.109 1.386-4.316zm1.08 45.036c.482-1.124.682-2.349.582-3.569l-.796-9.699 14.431-2.52 4.721 25.236v95.013l-30.108-63.979c3.259-21.79 11.092-40.299 11.17-40.482zm-58.073-1.438c.708-1.415 1.924-2.47 3.425-2.971 2.845-.948 5.956.383 7.233 3.097l5.134 10.909-12.166 5.327-3.947-11.841c-.501-1.5-.387-3.106.321-4.521zm11.748 43.489c.201-1.207.104-2.444-.283-3.604l-3.077-9.232 13.792-6.039 38.32 81.429h-46.344c-7.917-28.28-2.467-62.198-2.408-62.554zm450.038 110.134c0 .285-.231.516-.516.516h-424.854c-4.142 0-7.5 3.358-7.5 7.5s3.358 7.5 7.5 7.5h409.337v184.887c0 4.705-3.828 8.532-8.532 8.532h-432.871c-4.705 0-8.532-3.828-8.532-8.532v-184.887h8.531c4.142 0 7.5-3.358 7.5-7.5s-3.358-7.5-7.5-7.5h-24.047c-.285 0-.516-.231-.516-.516v-32.064c0-.285.231-.516.516-.516h208.936v.516c0 8.556 6.96 15.516 15.516 15.516h32.064c8.556 0 15.516-6.96 15.516-15.516v-.516h208.936c.285 0 .516.231.516.516z" data-original="#000000" class="active-path" data-old_color="#000000" fill="#383F61"/><path d="m256 455.887c12.976 0 23.532-10.557 23.532-23.532v-96.194c0-12.976-10.557-23.532-23.532-23.532s-23.532 10.556-23.532 23.532v96.194c0 12.976 10.556 23.532 23.532 23.532zm-8.532-119.726c0-4.705 3.828-8.532 8.532-8.532s8.532 3.828 8.532 8.532v96.194c0 4.705-3.828 8.532-8.532 8.532s-8.532-3.828-8.532-8.532z" data-original="#000000" class="active-path" data-old_color="#000000" fill="#383F61"/><path d="m336.161 455.887c12.976 0 23.532-10.557 23.532-23.532v-96.194c0-12.976-10.557-23.532-23.532-23.532s-23.532 10.556-23.532 23.532v96.194c0 12.976 10.557 23.532 23.532 23.532zm-8.532-119.726c0-4.705 3.828-8.532 8.532-8.532s8.532 3.828 8.532 8.532v96.194c0 4.705-3.828 8.532-8.532 8.532s-8.532-3.828-8.532-8.532z" data-original="#000000" class="active-path" data-old_color="#000000" fill="#383F61"/><path d="m416.323 455.887c12.976 0 23.532-10.557 23.532-23.532v-96.194c0-12.976-10.557-23.532-23.532-23.532s-23.532 10.556-23.532 23.532v8.015c0 4.142 3.358 7.5 7.5 7.5s7.5-3.358 7.5-7.5v-8.015c0-4.705 3.828-8.532 8.532-8.532s8.532 3.828 8.532 8.532v96.194c0 4.705-3.828 8.532-8.532 8.532s-8.532-3.828-8.532-8.532v-56.11c0-4.142-3.358-7.5-7.5-7.5s-7.5 3.358-7.5 7.5v56.11c0 12.976 10.556 23.532 23.532 23.532z" data-original="#000000" class="active-path" data-old_color="#000000" fill="#383F61"/><path d="m95.677 455.887c12.976 0 23.532-10.557 23.532-23.532v-96.194c0-12.976-10.557-23.532-23.532-23.532s-23.532 10.556-23.532 23.532v96.194c0 12.976 10.557 23.532 23.532 23.532zm-8.532-119.726c0-4.705 3.828-8.532 8.532-8.532s8.532 3.828 8.532 8.532v96.194c0 4.705-3.828 8.532-8.532 8.532s-8.532-3.828-8.532-8.532z" data-original="#000000" class="active-path" data-old_color="#000000" fill="#383F61"/><path d="m175.839 455.887c12.976 0 23.532-10.557 23.532-23.532v-96.194c0-12.976-10.557-23.532-23.532-23.532s-23.532 10.556-23.532 23.532v96.194c0 12.976 10.556 23.532 23.532 23.532zm-8.532-119.726c0-4.705 3.828-8.532 8.532-8.532s8.532 3.828 8.532 8.532v96.194c0 4.705-3.828 8.532-8.532 8.532s-8.532-3.828-8.532-8.532z" data-original="#000000" class="active-path" data-old_color="#000000" fill="#383F61"/><path d="m151.791 159.29h16.032c4.142 0 7.5-3.358 7.5-7.5s-3.358-7.5-7.5-7.5h-16.032c-4.142 0-7.5 3.358-7.5 7.5s3.357 7.5 7.5 7.5z" data-original="#000000" class="active-path" data-old_color="#000000" fill="#383F61"/></g> </svg>
